<mxfile host="app.diagrams.net" modified="2023-12-07T23:53:50.888Z" agent="Mozilla/5.0 (Windows NT 10.0; Win64; x64) AppleWebKit/537.36 (KHTML, like Gecko) Chrome/120.0.0.0 Safari/537.36" etag="SxqZbo1Ye9YFqPAbP_SZ" version="22.1.7" type="github">
  <diagram name="Page-1" id="CdFyWuu7mZfADsBGeCwA">
    <mxGraphModel dx="1521" dy="833" grid="1" gridSize="10" guides="1" tooltips="1" connect="1" arrows="1" fold="1" page="1" pageScale="1" pageWidth="850" pageHeight="1100" math="0" shadow="0">
      <root>
        <mxCell id="0" />
        <mxCell id="1" parent="0" />
        <mxCell id="9oPIyIbZ-EvlBXnKMK6W-6" value="" style="image;points=[];aspect=fixed;html=1;align=center;shadow=0;dashed=0;image=img/lib/allied_telesis/computer_and_terminals/Personal_Computer_with_Server.svg;" parent="1" vertex="1">
          <mxGeometry x="528.8" y="380" width="62.400000000000006" height="62.400000000000006" as="geometry" />
        </mxCell>
        <mxCell id="9oPIyIbZ-EvlBXnKMK6W-9" value="" style="shape=flexArrow;endArrow=classic;startArrow=classic;html=1;rounded=0;entryX=0.5;entryY=1;entryDx=0;entryDy=0;entryPerimeter=0;" parent="1" source="9oPIyIbZ-EvlBXnKMK6W-6" target="mhXbEhYM_pufSV945Tpj-3" edge="1">
          <mxGeometry width="100" height="100" relative="1" as="geometry">
            <mxPoint x="210" y="470" as="sourcePoint" />
            <mxPoint x="560" y="270" as="targetPoint" />
          </mxGeometry>
        </mxCell>
        <mxCell id="9oPIyIbZ-EvlBXnKMK6W-13" style="edgeStyle=orthogonalEdgeStyle;rounded=0;orthogonalLoop=1;jettySize=auto;html=1;" parent="1" source="9oPIyIbZ-EvlBXnKMK6W-12" target="mhXbEhYM_pufSV945Tpj-3" edge="1">
          <mxGeometry relative="1" as="geometry">
            <mxPoint x="560" y="190" as="targetPoint" />
          </mxGeometry>
        </mxCell>
        <mxCell id="9oPIyIbZ-EvlBXnKMK6W-12" value="pfsense-2.7.1&lt;br&gt;(em0) WAN: 10.0.2.15&lt;br&gt;(em1) LAN: 192.168.1.1&lt;br&gt;(em2) SPAN: 192.168.2.1&lt;br&gt;Built-in Firewall" style="text;html=1;strokeColor=none;fillColor=none;align=center;verticalAlign=middle;whiteSpace=wrap;rounded=0;" parent="1" vertex="1">
          <mxGeometry x="610" y="181" width="151.2" height="100" as="geometry" />
        </mxCell>
        <mxCell id="9oPIyIbZ-EvlBXnKMK6W-22" style="edgeStyle=orthogonalEdgeStyle;rounded=0;orthogonalLoop=1;jettySize=auto;html=1;" parent="1" source="9oPIyIbZ-EvlBXnKMK6W-19" target="9oPIyIbZ-EvlBXnKMK6W-6" edge="1">
          <mxGeometry relative="1" as="geometry">
            <Array as="points">
              <mxPoint x="706" y="421" />
            </Array>
          </mxGeometry>
        </mxCell>
        <mxCell id="9oPIyIbZ-EvlBXnKMK6W-19" value="Hostname: kali&lt;br&gt;OS: kali&lt;br&gt;(eth0) LAN: 192.168.1.100&lt;br&gt;Gateway: 192.168.1.1" style="text;html=1;strokeColor=none;fillColor=none;align=center;verticalAlign=middle;whiteSpace=wrap;rounded=0;" parent="1" vertex="1">
          <mxGeometry x="620" y="361.2" width="213.8" height="100" as="geometry" />
        </mxCell>
        <mxCell id="mhXbEhYM_pufSV945Tpj-1" value="" style="shape=flexArrow;endArrow=classic;startArrow=classic;html=1;rounded=0;entryX=0;entryY=0.5;entryDx=0;entryDy=0;entryPerimeter=0;" parent="1" source="mhXbEhYM_pufSV945Tpj-6" target="mhXbEhYM_pufSV945Tpj-3" edge="1">
          <mxGeometry width="100" height="100" relative="1" as="geometry">
            <mxPoint x="235" y="231" as="sourcePoint" />
            <mxPoint x="485.4" y="379.6354961832062" as="targetPoint" />
          </mxGeometry>
        </mxCell>
        <mxCell id="mhXbEhYM_pufSV945Tpj-3" value="" style="shape=mxgraph.cisco.security.router_firewall;html=1;pointerEvents=1;dashed=0;fillColor=#036897;strokeColor=#ffffff;strokeWidth=2;verticalLabelPosition=bottom;verticalAlign=top;align=center;outlineConnect=0;" parent="1" vertex="1">
          <mxGeometry x="521" y="200" width="78" height="62" as="geometry" />
        </mxCell>
        <mxCell id="mhXbEhYM_pufSV945Tpj-6" value="" style="image;aspect=fixed;perimeter=ellipsePerimeter;html=1;align=center;shadow=0;dashed=0;spacingTop=3;image=img/lib/active_directory/internet_cloud.svg;" parent="1" vertex="1">
          <mxGeometry x="300" y="200" width="91.27" height="57.5" as="geometry" />
        </mxCell>
        <mxCell id="mhXbEhYM_pufSV945Tpj-8" style="edgeStyle=orthogonalEdgeStyle;rounded=0;orthogonalLoop=1;jettySize=auto;html=1;entryX=0.5;entryY=0;entryDx=0;entryDy=0;" parent="1" source="mhXbEhYM_pufSV945Tpj-7" target="mhXbEhYM_pufSV945Tpj-6" edge="1">
          <mxGeometry relative="1" as="geometry" />
        </mxCell>
        <mxCell id="mhXbEhYM_pufSV945Tpj-7" value="The Internet" style="text;html=1;align=center;verticalAlign=middle;resizable=0;points=[];autosize=1;strokeColor=none;fillColor=none;" parent="1" vertex="1">
          <mxGeometry x="300" y="132.4" width="90" height="30" as="geometry" />
        </mxCell>
        <mxCell id="m1Vz-gU3Qan9QUfalsW7-1" value="" style="image;points=[];aspect=fixed;html=1;align=center;shadow=0;dashed=0;image=img/lib/allied_telesis/computer_and_terminals/Personal_Computer_with_Server.svg;" parent="1" vertex="1">
          <mxGeometry x="528.8" y="70" width="62.400000000000006" height="62.400000000000006" as="geometry" />
        </mxCell>
        <mxCell id="m1Vz-gU3Qan9QUfalsW7-4" style="edgeStyle=orthogonalEdgeStyle;rounded=0;orthogonalLoop=1;jettySize=auto;html=1;" parent="1" source="m1Vz-gU3Qan9QUfalsW7-2" target="m1Vz-gU3Qan9QUfalsW7-1" edge="1">
          <mxGeometry relative="1" as="geometry" />
        </mxCell>
        <mxCell id="m1Vz-gU3Qan9QUfalsW7-2" value="Hostname: kali&lt;br&gt;OS: kali&lt;br&gt;(eth0) LAN: 192.168.2.100&lt;br&gt;Network: SPAN" style="text;html=1;strokeColor=none;fillColor=none;align=center;verticalAlign=middle;whiteSpace=wrap;rounded=0;" parent="1" vertex="1">
          <mxGeometry x="620" y="51.19999999999999" width="213.8" height="100" as="geometry" />
        </mxCell>
        <mxCell id="m1Vz-gU3Qan9QUfalsW7-3" value="" style="shape=flexArrow;endArrow=classic;startArrow=classic;html=1;rounded=0;entryX=0.5;entryY=1;entryDx=0;entryDy=0;entryPerimeter=0;" parent="1" edge="1">
          <mxGeometry width="100" height="100" relative="1" as="geometry">
            <mxPoint x="559.5" y="190.4" as="sourcePoint" />
            <mxPoint x="559.5" y="132.4" as="targetPoint" />
          </mxGeometry>
        </mxCell>
        <mxCell id="m1Vz-gU3Qan9QUfalsW7-9" style="edgeStyle=orthogonalEdgeStyle;rounded=0;orthogonalLoop=1;jettySize=auto;html=1;" parent="1" source="m1Vz-gU3Qan9QUfalsW7-8" edge="1">
          <mxGeometry relative="1" as="geometry">
            <mxPoint x="570" y="160" as="targetPoint" />
          </mxGeometry>
        </mxCell>
        <mxCell id="m1Vz-gU3Qan9QUfalsW7-8" value="SPAN" style="text;html=1;strokeColor=none;fillColor=none;align=center;verticalAlign=middle;whiteSpace=wrap;rounded=0;" parent="1" vertex="1">
          <mxGeometry x="610" y="140" width="60" height="30" as="geometry" />
        </mxCell>
        <mxCell id="m1Vz-gU3Qan9QUfalsW7-11" style="edgeStyle=orthogonalEdgeStyle;rounded=0;orthogonalLoop=1;jettySize=auto;html=1;" parent="1" source="m1Vz-gU3Qan9QUfalsW7-10" edge="1">
          <mxGeometry relative="1" as="geometry">
            <mxPoint x="550" y="316" as="targetPoint" />
          </mxGeometry>
        </mxCell>
        <mxCell id="m1Vz-gU3Qan9QUfalsW7-10" value="LAN" style="text;html=1;strokeColor=none;fillColor=none;align=center;verticalAlign=middle;whiteSpace=wrap;rounded=0;" parent="1" vertex="1">
          <mxGeometry x="440" y="301.2" width="60" height="30" as="geometry" />
        </mxCell>
        <mxCell id="m1Vz-gU3Qan9QUfalsW7-13" style="edgeStyle=orthogonalEdgeStyle;rounded=0;orthogonalLoop=1;jettySize=auto;html=1;" parent="1" source="m1Vz-gU3Qan9QUfalsW7-12" edge="1">
          <mxGeometry relative="1" as="geometry">
            <mxPoint x="450" y="220" as="targetPoint" />
          </mxGeometry>
        </mxCell>
        <mxCell id="m1Vz-gU3Qan9QUfalsW7-12" value="WAN" style="text;html=1;strokeColor=none;fillColor=none;align=center;verticalAlign=middle;whiteSpace=wrap;rounded=0;" parent="1" vertex="1">
          <mxGeometry x="420" y="151" width="60" height="30" as="geometry" />
        </mxCell>
      </root>
    </mxGraphModel>
  </diagram>
</mxfile>
